<svg xmlns="http://www.w3.org/2000/svg" width="50.168" height="48.93" viewBox="0 0 50.168 48.93">
  <path id="Octicons-mark-github" d="M25.084,0a25.085,25.085,0,0,0-7.933,48.882c1.254.219,1.725-.533,1.725-1.191,0-.6-.031-2.571-.031-4.672-6.3,1.16-7.933-1.536-8.434-2.947-.282-.721-1.505-2.947-2.571-3.543-.878-.47-2.132-1.63-.031-1.662,1.975-.031,3.386,1.819,3.857,2.571,2.258,3.794,5.863,2.728,7.306,2.069a5.276,5.276,0,0,1,1.6-3.355c-5.581-.627-11.413-2.791-11.413-12.385a9.762,9.762,0,0,1,2.571-6.741,9.014,9.014,0,0,1,.251-6.647s2.1-.658,6.9,2.571a23.649,23.649,0,0,1,12.542,0c4.8-3.261,6.9-2.571,6.9-2.571a9.014,9.014,0,0,1,.251,6.647,9.705,9.705,0,0,1,2.571,6.741c0,9.626-5.863,11.758-11.444,12.385a5.94,5.94,0,0,1,1.693,4.64c0,3.355-.031,6.051-.031,6.9,0,.658.47,1.442,1.725,1.191A25.1,25.1,0,0,0,25.084,0Z" fill="#1b1f23" fill-rule="evenodd"/>
</svg>
